<?xml version="1.0" standalone="no"?>
<!DOCTYPE svg PUBLIC "-//W3C//DTD SVG 20010904//EN"
 "http://www.w3.org/TR/2001/REC-SVG-20010904/DTD/svg10.dtd">
<svg version="1.0" xmlns="http://www.w3.org/2000/svg"
 width="512.000000pt" height="512.000000pt" viewBox="0 0 512.000000 512.000000"
 preserveAspectRatio="xMidYMid meet">
<metadata>
Created by potrace 1.14, written by Peter Selinger 2001-2017
</metadata>
<g transform="translate(0.000000,512.000000) scale(0.100000,-0.100000)"
fill="#000000" stroke="none">
<path d="M3787 4374 c-1 -1 -33 -4 -72 -8 -38 -3 -86 -8 -105 -11 -93 -14
-276 -77 -375 -128 -85 -44 -259 -158 -312 -204 -17 -15 -51 -43 -75 -62 -23
-19 -124 -116 -223 -216 l-181 -182 -1217 1 -1218 1 6 -110 c8 -163 15 -266
20 -305 2 -19 7 -60 10 -90 5 -48 20 -156 30 -215 71 -430 265 -862 547 -1219
41 -52 41 -54 -8 -101 -6 -5 -39 -43 -75 -84 -35 -41 -77 -88 -94 -105 -16
-18 -58 -63 -92 -101 -34 -39 -85 -95 -112 -125 -28 -30 -51 -61 -51 -68 0 -7
11 -34 24 -61 l25 -48 68 -6 c37 -4 79 -9 92 -12 14 -2 74 -7 135 -11 61 -3
129 -7 151 -9 50 -5 485 -5 580 0 66 3 135 9 250 21 28 3 68 7 90 9 28 2 76
-9 159 -36 153 -52 263 -78 421 -103 86 -14 126 -19 260 -32 79 -8 426 -8 490
0 148 18 221 30 321 52 737 160 1343 618 1638 1239 85 178 158 426 188 635 14
104 18 438 5 539 -41 331 -167 603 -376 812 -186 184 -400 290 -666 328 -72
11 -251 21 -258 15z m248 -198 c39 -8 94 -17 97 -16 9 2 153 -52 203 -77 129
-63 229 -142 325 -258 104 -125 197 -340 229 -530 51 -298 22 -659 -75 -943
-192 -556 -631 -1002 -1229 -1247 -168 -70 -404 -134 -551 -150 -32 -4 -78
-11 -102 -15 -45 -8 -434 -5 -512 4 -71 8 -133 17 -155 21 -11 3 -36 7 -55 9
-19 3 -68 12 -108 21 -40 8 -76 15 -80 16 -6 1 72 22 123 33 80 17 293 88 395
131 88 36 301 144 321 161 8 8 19 14 23 14 4 0 44 26 89 57 281 194 458 394
580 654 139 297 151 676 30 937 -91 194 -270 362 -483 451 -30 13 -62 27 -70
31 -20 10 -164 47 -210 54 -19 3 -54 8 -77 12 -24 3 -43 10 -43 14 0 11 227
228 311 296 217 178 429 282 643 318 80 14 319 15 381 2z m-1776 -824 c-13
-14 -28 -31 -34 -37 -53 -61 -199 -223 -292 -325 -23 -25 -50 -54 -60 -66 -20
-23 -137 -154 -168 -188 -11 -12 -55 -60 -97 -107 -42 -46 -85 -94 -95 -105
-23 -27 -152 -170 -218 -244 -28 -30 -64 -70 -80 -89 -17 -19 -41 -46 -55 -61
-14 -14 -43 -46 -64 -71 -22 -24 -76 -84 -121 -134 -45 -49 -104 -116 -131
-147 -27 -31 -51 -57 -54 -57 -9 -2 -123 156 -190 263 -70 111 -152 265 -182
341 -11 28 -26 64 -33 80 -60 137 -140 458 -160 645 -4 36 -9 73 -11 84 -2 10
-6 69 -10 131 l-6 113 1042 1 1042 0 -23 -27z m481 12 c13 -3 38 -7 56 -9 105
-14 269 -77 365 -141 252 -167 358 -439 309 -795 -31 -229 -168 -493 -341
-659 -165 -158 -313 -261 -517 -364 -240 -120 -586 -232 -872 -280 -52 -9
-106 -18 -119 -21 -13 -2 -49 -7 -80 -10 -31 -4 -66 -8 -78 -10 -23 -4 -164
-15 -248 -21 -73 -4 -475 -4 -510 0 -28 4 -204 18 -232 19 -14 0 -5 15 27 47
8 8 49 53 90 100 41 47 86 97 100 111 22 23 125 137 173 193 10 12 35 39 55
61 20 22 71 78 112 125 41 46 84 94 95 105 11 12 49 54 85 94 36 41 70 79 75
85 6 6 53 58 105 116 102 113 166 184 190 210 8 9 49 54 90 100 41 46 82 91
90 100 20 22 160 178 183 204 19 22 45 50 177 196 72 80 321 356 384 427 l29
33 91 -5 c50 -3 102 -8 116 -11z"/>
<path d="M3800 3763 c-53 -28 -81 -75 -75 -131 8 -75 50 -120 122 -128 76 -10
157 63 152 136 -8 107 -109 170 -199 123z"/>
</g>
</svg>
